<?xml version="1.0" encoding="iso-8859-1"?>
<!-- Generator: Adobe Illustrator 19.0.0, SVG Export Plug-In . SVG Version: 6.00 Build 0)  -->
<svg version="1.1" id="Capa_1" xmlns="http://www.w3.org/2000/svg" xmlns:xlink="http://www.w3.org/1999/xlink" x="0px" y="0px"
	 viewBox="0 0 512 512" style="enable-background:new 0 0 512 512;" xml:space="preserve">
<g>
	<g>
		<path d="M437.02,181.02V74.98H330.98L256,0l-74.98,74.98H74.98v106.04L0,256l74.98,74.98v106.04h106.04L256,512l74.98-74.98
			h106.04V330.98L512,256L437.02,181.02z M407.01,318.55v88.46h-88.46L256,469.56l-62.55-62.55h-88.46v-88.46L42.44,256l62.55-62.55
			v-88.46h88.46L256,42.44l62.55,62.55h88.46v88.46L469.56,256L407.01,318.55z"/>
	</g>
</g>
<g>
	<g>
		<path d="M377.001,205.88v-70.881H306.12L256,84.879l-50.12,50.12h-70.881v70.881L84.879,256l50.12,50.12v70.881h70.881
			l50.12,50.12l50.12-50.12h70.881V306.12l50.12-50.12L377.001,205.88z M346.991,293.69v53.301H293.69L256,384.681l-37.69-37.69
			h-53.301V293.69L127.319,256l37.69-37.69v-53.301h53.301l37.69-37.69l37.69,37.69h53.301v53.301l37.69,37.69L346.991,293.69z"/>
	</g>
</g>
<g>
</g>
<g>
</g>
<g>
</g>
<g>
</g>
<g>
</g>
<g>
</g>
<g>
</g>
<g>
</g>
<g>
</g>
<g>
</g>
<g>
</g>
<g>
</g>
<g>
</g>
<g>
</g>
<g>
</g>
</svg>
